<?xml version="1.0" standalone="no"?>
<svg xmlns="http://www.w3.org/2000/svg" viewBox="0 0 140.215 36" width="140.215" height="36"><g fill="#ead017" color="#ead017" transform="translate(0 3.9999999999999982) scale(0.2800001)"><svg width="100.0" height="100.0" x="0.0" y="0.0" viewBox="0 0 100 100"><path fill="currentColor" d="M95.833,54.165h-8.33c-2.302,0-4.168-1.866-4.168-4.165c0-2.3,1.866-4.167,4.168-4.167h8.33  C98.134,45.833,100,47.7,100,50C100,52.299,98.139,54.165,95.833,54.165z"></path><path fill="currentColor" d="M79.468,26.431c-1.628,1.626-4.271,1.626-5.894,0c-1.627-1.627-1.627-4.265,0-5.893l5.894-5.892  c1.621-1.627,4.265-1.627,5.893,0c1.621,1.627,1.621,4.265,0,5.892L79.468,26.431z"></path><path fill="currentColor" d="M50.002,24.999c-13.81,0-25.003,11.193-25.003,25.001c0,13.806,11.195,24.999,25.003,24.999  S75.001,63.806,75.001,50C75.001,36.192,63.81,24.999,50.002,24.999z M50.002,66.667c-9.203,0-16.668-7.464-16.668-16.667  c0-9.205,7.463-16.667,16.668-16.667S66.667,40.795,66.667,50C66.667,59.203,59.205,66.667,50.002,66.667z"></path><path fill="currentColor" d="M50.002,16.667c-2.302,0-4.167-1.867-4.167-4.167V4.167C45.835,1.867,47.7,0,50.002,0  c2.302,0,4.167,1.867,4.167,4.167V12.5C54.169,14.8,52.299,16.667,50.002,16.667z"></path><path fill="currentColor" d="M20.538,26.431l-5.892-5.893c-1.627-1.626-1.627-4.265,0-5.892c1.627-1.627,4.265-1.627,5.892,0l5.893,5.892  c1.626,1.628,1.626,4.266,0,5.893C24.804,28.057,22.166,28.057,20.538,26.431z"></path><path fill="currentColor" d="M16.667,50c0,2.299-1.867,4.165-4.167,4.165H4.165C1.865,54.165,0,52.299,0,50  c0-2.3,1.867-4.167,4.165-4.167H12.5C14.802,45.833,16.667,47.7,16.667,50z"></path><path fill="currentColor" d="M20.538,73.57c1.628-1.626,4.266-1.626,5.893,0c1.626,1.626,1.626,4.265,0,5.893l-5.893,5.891  c-1.626,1.628-4.265,1.628-5.892,0c-1.627-1.625-1.627-4.265,0-5.891L20.538,73.57z"></path><path fill="currentColor" d="M50.002,83.333c2.302,0,4.167,1.864,4.167,4.165v8.335c0,2.301-1.865,4.167-4.167,4.167  c-2.302,0-4.167-1.866-4.167-4.167v-8.335C45.835,85.197,47.7,83.333,50.002,83.333z"></path><path fill="currentColor" d="M79.468,73.57l5.893,5.893c1.621,1.626,1.621,4.266,0,5.891c-1.628,1.628-4.271,1.628-5.893,0l-5.894-5.891  c-1.627-1.628-1.627-4.267,0-5.893C75.196,71.942,77.835,71.942,79.468,73.57z"></path></svg></g><path fill="#000000" fill-rule="nonzero" d="M0 22.25L0 2.24L3.04 2.24Q3.61 2.24 4.29 2.29Q4.98 2.34 5.67 2.54Q6.35 2.73 6.99 3.13Q7.63 3.53 8.12 4.21Q8.61 4.90 8.91 5.93Q9.21 6.96 9.21 8.44L9.21 8.44L9.21 9.14Q9.21 10.75 8.94 11.89Q8.66 13.03 8.20 13.81Q7.75 14.59 7.14 15.06Q6.54 15.53 5.89 15.77Q5.24 16.01 4.58 16.08Q3.91 16.16 3.33 16.16L3.33 16.16L3.04 16.16L3.04 22.25L0 22.25ZM3.04 13.93L3.19 13.93Q4.01 13.93 4.57 13.69Q5.13 13.45 5.47 12.94Q5.80 12.43 5.95 11.63Q6.09 10.83 6.09 9.70L6.09 9.70L6.09 7.90Q6.09 7.01 5.96 6.36Q5.84 5.71 5.50 5.29Q5.17 4.86 4.61 4.66Q4.04 4.45 3.19 4.45L3.19 4.45L3.04 4.45L3.04 13.93ZM15.39 22.43L15.39 22.43Q14.87 22.43 14.34 22.35Q13.80 22.27 13.31 22.01Q12.81 21.75 12.37 21.27Q11.93 20.79 11.60 20.00Q11.27 19.22 11.09 18.07Q10.90 16.92 10.90 15.33L10.90 15.33L10.90 12.80Q10.90 11.23 11.09 10.11Q11.29 8.99 11.62 8.23Q11.95 7.46 12.40 7.01Q12.84 6.56 13.34 6.32Q13.84 6.08 14.37 6.01Q14.89 5.93 15.40 5.93L15.40 5.93Q15.88 5.93 16.39 6Q16.91 6.07 17.40 6.30Q17.89 6.53 18.33 6.98Q18.77 7.43 19.11 8.19Q19.44 8.95 19.63 10.08Q19.83 11.21 19.83 12.80L19.83 12.80L19.83 15.33Q19.83 16.90 19.63 18.04Q19.43 19.17 19.09 19.96Q18.75 20.74 18.30 21.23Q17.86 21.71 17.37 21.98Q16.88 22.25 16.37 22.34Q15.86 22.43 15.39 22.43ZM15.41 20.14L15.41 20.14Q15.81 20.14 16.08 19.94Q16.36 19.73 16.53 19.27Q16.70 18.80 16.78 18.03Q16.85 17.26 16.85 16.13L16.85 16.13L16.85 12.15Q16.85 11.02 16.78 10.24Q16.70 9.47 16.53 8.99Q16.36 8.52 16.08 8.31Q15.81 8.10 15.41 8.10L15.41 8.10Q14.99 8.10 14.70 8.31Q14.41 8.52 14.23 8.99Q14.04 9.47 13.96 10.24Q13.88 11.02 13.88 12.15L13.88 12.15L13.88 16.13Q13.88 17.26 13.96 18.03Q14.04 18.80 14.23 19.27Q14.41 19.73 14.70 19.94Q14.99 20.14 15.41 20.14ZM22.50 22.25L22.50 0.94L25.46 0.94L25.46 22.25L22.50 22.25ZM28.61 22.25L28.61 0.94L31.57 0.94L31.57 22.25L28.61 22.25ZM34.69 18.48L34.69 6.12L37.65 6.12L37.65 18.25Q37.65 19.31 37.98 19.73Q38.31 20.14 38.94 20.14L38.94 20.14Q39.39 20.14 39.81 19.90Q40.23 19.65 40.57 19.20L40.57 19.20L40.57 6.12L43.54 6.12L43.54 22.25L41.27 22.25L40.98 20.53L40.97 20.53Q40.62 21.08 40.22 21.45Q39.83 21.82 39.40 22.04Q38.98 22.25 38.53 22.35Q38.09 22.44 37.64 22.44L37.64 22.44Q36.22 22.44 35.46 21.46Q34.69 20.47 34.69 18.48L34.69 18.48ZM46.97 18.23L46.97 8.23L45.71 8.23L45.71 6.12L47.23 6.12L47.82 1.93L49.93 1.93L49.93 6.12L52.51 6.12L52.51 8.23L49.93 8.23L49.93 18.49Q49.93 19.02 50.03 19.34Q50.13 19.66 50.31 19.85Q50.48 20.03 50.72 20.09Q50.95 20.14 51.21 20.14L51.21 20.14Q51.64 20.14 51.98 20.04Q52.31 19.93 52.62 19.75L52.62 19.75L52.62 21.39Q52.36 21.70 52.06 21.90Q51.76 22.10 51.45 22.22Q51.13 22.35 50.80 22.39Q50.47 22.44 50.16 22.44L50.16 22.44Q49.54 22.44 48.96 22.28Q48.39 22.11 47.94 21.65Q47.50 21.19 47.23 20.37Q46.97 19.55 46.97 18.23L46.97 18.23ZM56.12 3.81L56.12 3.81Q55.30 3.81 54.83 3.32Q54.35 2.82 54.35 1.88L54.35 1.88Q54.35 1.35 54.47 0.99Q54.60 0.63 54.83 0.42Q55.05 0.20 55.38 0.10Q55.71 0 56.13 0L56.13 0Q57.01 0 57.47 0.45Q57.93 0.89 57.93 1.88L57.93 1.88Q57.93 2.79 57.46 3.30Q57 3.81 56.12 3.81ZM54.59 22.25L54.59 6.12L57.55 6.12L57.55 22.25L54.59 22.25ZM64.71 22.43L64.71 22.43Q64.20 22.43 63.66 22.35Q63.13 22.27 62.63 22.01Q62.13 21.75 61.69 21.27Q61.25 20.79 60.93 20.00Q60.60 19.22 60.41 18.07Q60.22 16.92 60.22 15.33L60.22 15.33L60.22 12.80Q60.22 11.23 60.42 10.11Q60.61 8.99 60.94 8.23Q61.28 7.46 61.72 7.01Q62.17 6.56 62.67 6.32Q63.16 6.08 63.69 6.01Q64.22 5.93 64.72 5.93L64.72 5.93Q65.20 5.93 65.72 6Q66.23 6.07 66.73 6.30Q67.22 6.53 67.66 6.98Q68.10 7.43 68.43 8.19Q68.77 8.95 68.96 10.08Q69.15 11.21 69.15 12.80L69.15 12.80L69.15 15.33Q69.15 16.90 68.95 18.04Q68.75 19.17 68.41 19.96Q68.07 20.74 67.63 21.23Q67.18 21.71 66.69 21.98Q66.20 22.25 65.69 22.34Q65.18 22.43 64.71 22.43ZM64.73 20.14L64.73 20.14Q65.13 20.14 65.41 19.94Q65.68 19.73 65.85 19.27Q66.02 18.80 66.10 18.03Q66.18 17.26 66.18 16.13L66.18 16.13L66.18 12.15Q66.18 11.02 66.10 10.24Q66.02 9.47 65.85 8.99Q65.68 8.52 65.41 8.31Q65.13 8.10 64.73 8.10L64.73 8.10Q64.31 8.10 64.03 8.31Q63.74 8.52 63.55 8.99Q63.36 9.47 63.28 10.24Q63.20 11.02 63.20 12.15L63.20 12.15L63.20 16.13Q63.20 17.26 63.28 18.03Q63.36 18.80 63.55 19.27Q63.74 19.73 64.03 19.94Q64.31 20.14 64.73 20.14ZM71.78 22.25L71.78 6.12L74.06 6.12L74.33 7.84L74.33 7.85Q74.68 7.30 75.09 6.93Q75.49 6.56 75.93 6.34Q76.36 6.12 76.81 6.02Q77.26 5.93 77.71 5.93L77.71 5.93Q79.13 5.93 79.89 6.92Q80.66 7.91 80.66 9.89L80.66 9.89L80.66 22.25L77.70 22.25L77.70 10.00Q77.70 8.93 77.37 8.51Q77.04 8.10 76.41 8.10L76.41 8.10Q75.96 8.10 75.52 8.39Q75.08 8.68 74.74 9.20L74.74 9.20L74.74 22.25L71.78 22.25ZM83.27 20.16L83.27 20.16Q83.27 18.91 83.77 18.38Q84.26 17.84 85.10 17.84L85.10 17.84Q85.98 17.84 86.46 18.41Q86.94 18.98 86.94 20.16L86.94 20.16Q86.94 21.23 86.46 21.83Q85.97 22.42 85.09 22.42L85.09 22.42Q84.26 22.42 83.77 21.84Q83.27 21.27 83.27 20.16ZM91.18 3.81L91.18 3.81Q90.36 3.81 89.89 3.32Q89.41 2.82 89.41 1.88L89.41 1.88Q89.41 1.35 89.54 0.99Q89.66 0.63 89.89 0.42Q90.12 0.20 90.45 0.10Q90.77 0 91.20 0L91.20 0Q92.07 0 92.53 0.45Q92.99 0.89 92.99 1.88L92.99 1.88Q92.99 2.79 92.53 3.30Q92.06 3.81 91.18 3.81ZM89.65 22.25L89.65 6.12L92.61 6.12L92.61 22.25L89.65 22.25ZM99.77 22.43L99.77 22.43Q99.26 22.43 98.72 22.35Q98.19 22.27 97.69 22.01Q97.20 21.75 96.76 21.27Q96.32 20.79 95.99 20.00Q95.66 19.22 95.47 18.07Q95.29 16.92 95.29 15.33L95.29 15.33L95.29 12.80Q95.29 11.23 95.48 10.11Q95.67 8.99 96.01 8.23Q96.34 7.46 96.79 7.01Q97.23 6.56 97.73 6.32Q98.23 6.08 98.75 6.01Q99.28 5.93 99.79 5.93L99.79 5.93Q100.27 5.93 100.78 6Q101.30 6.07 101.79 6.30Q102.28 6.53 102.72 6.98Q103.16 7.43 103.49 8.19Q103.83 8.95 104.02 10.08Q104.21 11.21 104.21 12.80L104.21 12.80L104.21 15.33Q104.21 16.90 104.02 18.04Q103.82 19.17 103.48 19.96Q103.14 20.74 102.69 21.23Q102.25 21.71 101.75 21.98Q101.26 22.25 100.75 22.34Q100.24 22.43 99.77 22.43ZM99.80 20.14L99.80 20.14Q100.20 20.14 100.47 19.94Q100.75 19.73 100.92 19.27Q101.09 18.80 101.16 18.03Q101.24 17.26 101.24 16.13L101.24 16.13L101.24 12.15Q101.24 11.02 101.16 10.24Q101.09 9.47 100.92 8.99Q100.75 8.52 100.47 8.31Q100.20 8.10 99.80 8.10L99.80 8.10Q99.38 8.10 99.09 8.31Q98.80 8.52 98.61 8.99Q98.43 9.47 98.34 10.24Q98.26 11.02 98.26 12.15L98.26 12.15L98.26 16.13Q98.26 17.26 98.34 18.03Q98.43 18.80 98.61 19.27Q98.80 19.73 99.09 19.94Q99.38 20.14 99.80 20.14Z" transform="translate(36, 6.874)"></path></svg>